#!OML:ASF I:\Actors\actors\Patient Classification 1\Patient 1\Session 1\Subject1.ASF
:FULLY-SPECIFIED
:DEGREES
1738
root 0.935026 17.5563 7.87741 35.7549 -25.8915 -8.44017
lowerback 12.1035 -1.52801 5.19074
upperback 2.25253 -1.20746 3.97472
thorax -4.44128 -0.664721 1.43328
lowerneck -3.4818 -5.32544 -4.83649
upperneck 37.8154 -8.05274 0.970146
head 13.6382 -4.22395 0.232404
rclavicle 3.99557e-014 2.48481e-014
rhumerus -33.9024 -3.16424 -82.5887
rradius 47.5912
rwrist 16.3423
rhand 6.50265 -22.8472
rfingers 7.12502
rthumb 31.8022 -50.0926
lclavicle 3.99557e-014 2.48481e-014
lhumerus -21.2003 -20.4113 96.9679
lradius 37.2479
lwrist -2.93818
lhand -24.8575 -17.0835
lfingers 7.12502
lthumb 1.64923 12.8899
rfemur -50.2496 36.3049 -13.4022
rtibia 3.14541
rfoot -3.97392 -28.9274
rtoes 4.28051
lfemur 44.3605 117.438 26.9513
ltibia 1.00624
lfoot 235.316 121.046
ltoes 45.0183
1739
root 0.89206 17.5486 7.87418 36.228 -25.82 -8.19946
lowerback 12.2686 -1.5056 5.23392
upperback 2.07593 -1.14873 3.90142
thorax -4.72033 -0.640964 1.33178
lowerneck -3.05698 -5.33354 -4.20275
upperneck 36.4339 -7.93003 0.564997
head 12.861 -4.13601 0.0266088
rclavicle 5.00937e-014 4.49253e-014
rhumerus -33.991 -3.20853 -82.6813
rradius 47.9812
rwrist 15.9524
rhand 6.38995 -22.9091
rfingers 7.12502
rthumb 31.6948 -50.1758
lclavicle 5.00937e-014 4.49253e-014
lhumerus -21.1804 -20.4824 97.0746
lradius 37.408
lwrist -2.90313
lhand -24.7933 -17.2498
lfingers 7.12502
lthumb 1.71122 12.723
rfemur -50.6781 36.0188 -13.8357
rtibia 2.93939
rfoot -4.14024 -29.0669
rtoes 3.5332
lfemur 46.1848 118.047 28.3561
ltibia 0.608985
lfoot 233.422 119.354
ltoes 42.9923
1740
root 0.847439 17.5412 7.87281 36.6951 -25.7423 -7.99865
lowerback 12.4296 -1.52509 5.27353
upperback 1.90018 -1.14487 3.85864
thorax -4.99672 -0.644278 1.27316
lowerneck -3.09025 -5.34382 -4.46063
upperneck 35.8347 -8.01627 1.06442
head 12.6486 -4.14754 0.262297
rclavicle 6.36111e-015 -4.35338e-014
rhumerus -34.0185 -3.10781 -82.7912
rradius 48.2917
rwrist 15.5123
rhand 6.4138 -22.9944
rfingers 7.12502
rthumb 31.7175 -50.2566
lclavicle 6.36111e-015 -4.35338e-014
lhumerus -21.2066 -20.4247 97.147
lradius 37.5907
lwrist -2.83634
lhand -24.7669 -17.507
lfingers 7.12502
lthumb 1.73672 12.4657
rfemur -51.0921 35.7772 -14.2074
rtibia 2.77919
rfoot -4.40914 -29.1616
rtoes 1.20114
lfemur 47.7948 118.647 29.635
ltibia 0.294348
lfoot 231.07 117.574
ltoes 40.6384
1741
root 0.803146 17.5319 7.87045 37.1956 -25.655 -7.85926
lowerback 12.5895 -1.58762 5.29583
upperback 1.74484 -1.19906 3.86951
thorax -5.25098 -0.675243 1.2904
lowerneck -3.24172 -5.27569 -4.76605
upperneck 35.3312 -7.95816 1.48282
head 12.4976 -4.1099 0.483371
rclavicle 1.21259e-014 -1.92821e-014
rhumerus -34.0019 -2.74944 -82.936
rradius 48.6377
rwrist 15.0034
rhand 6.3775 -23.0821
rfingers 7.12502
rthumb 31.683 -50.3511
lclavicle 1.21259e-014 -1.92821e-014
lhumerus -21.1657 -20.2205 97.166
lradius 37.823
lwrist -2.67273
lhand -24.6929 -17.3289
lfingers 7.12502
lthumb 1.80813 12.6432
rfemur -51.5711 35.5394 -14.5487
rtibia 2.6969
rfoot -4.75716 -29.235
rtoes 1.35678
lfemur 49.2659 119.288 30.8779
ltibia 0.0518159
lfoot 228.308 115.822
ltoes 38.041
1742
root 0.759325 17.5206 7.86757 37.7102 -25.5297 -7.69401
lowerback 12.7214 -1.61953 5.4575
upperback 1.59204 -1.1998 3.80893
thorax -5.49081 -0.683203 1.14444
lowerneck -3.32496 -5.32593 -4.67347
upperneck 34.6323 -8.00558 1.56514
head 12.2179 -4.10553 0.501026
rclavicle -4.75095e-014 8.22969e-014
rhumerus -34.0132 -2.6868 -83.0912
rradius 48.9988
rwrist 14.5791
rhand 6.29315 -23.1495
rfingers 7.12502
rthumb 31.6026 -50.4344
lclavicle -4.75095e-014 8.22969e-014
lhumerus -21.0868 -20.3064 97.169
lradius 38.0387
lwrist -2.43561
lhand -24.7774 -17.1159
lfingers 7.12502
lthumb 1.72655 12.8569
rfemur -52.0287 35.238 -14.8861
rtibia 2.58316
rfoot -5.11183 -29.3063
rtoes 2.57646
lfemur 50.8234 119.968 32.1963
ltibia -0.215933
lfoot 225.333 114.239
ltoes 35.2874
1743
root 0.713121 17.5114 7.86778 38.1453 -25.4776 -7.57187
lowerback 12.971 -1.60477 5.66952
upperback 1.43086 -1.12398 3.69157
thorax -5.80556 -0.657313 0.900394
lowerneck -2.99665 -5.35786 -4.23782
upperneck 33.4178 -7.96047 1.33337
head 11.6118 -4.06109 0.376891
rclavicle 1.90833e-014 5.18828e-014
rhumerus -34.1112 -2.8415 -83.2502
rradius 49.3133
rwrist 14.2199
rhand 6.292 -23.1328
rfingers 7.12502
rthumb 31.6015 -50.4179
lclavicle 1.90833e-014 5.18828e-014
lhumerus -21.0742 -20.4972 97.1743
lradius 38.1981
lwrist -2.25107
lhand -24.936 -17.317
lfingers 7.12502
lthumb 1.57339 12.6569
rfemur -52.405 35.0788 -15.178
rtibia 2.44296
rfoot -5.7127 -29.4317
rtoes 4.23561
lfemur 52.0284 120.602 33.1946
ltibia -0.496182
lfoot 221.901 112.743
ltoes 32.2242
1744
root 0.665932 17.504 7.86923 38.5483 -25.4946 -7.47468
lowerback 13.2794 -1.62918 5.72306
upperback 1.25284 -1.1112 3.6506
thorax -6.16856 -0.659562 0.839001
lowerneck -2.94386 -5.34413 -4.34091
upperneck 32.7272 -7.9115 1.44986
head 11.3314 -4.03852 0.454936
rclavicle 1.21259e-014 1.07344e-014
rhumerus -34.2572 -2.65237 -83.3788
rradius 49.6271
rwrist 13.8547
rhand 6.38601 -22.9707
rfingers 7.12502
rthumb 31.6911 -50.2382
lclavicle 1.21259e-014 1.07344e-014
lhumerus -21.1067 -20.3448 97.2081
lradius 38.3693
lwrist -2.11365
lhand -24.9687 -17.5339
lfingers 7.12502
lthumb 1.54181 12.4402
rfemur -52.7806 35.0092 -15.499
rtibia 2.27001
rfoot -6.29819 -29.6211
rtoes 5.35886
lfemur 53.0056 121.243 33.9823
ltibia -0.766006
lfoot 218.107 111.406
ltoes 28.9781
1745
root 0.61829 17.4953 7.86969 38.9691 -25.4168 -7.31933
lowerback 13.5093 -1.68435 5.823
upperback 1.09723 -1.13955 3.61858
thorax -6.46668 -0.682036 0.766055
lowerneck -3.10166 -5.35764 -4.48991
upperneck 32.2332 -7.90292 1.58203
head 11.1793 -4.03333 0.530897
rclavicle 4.81059e-014 1.14699e-013
rhumerus -34.3051 -2.43968 -83.4898
rradius 49.8829
rwrist 13.4828
rhand 6.47707 -22.9183
rfingers 7.12502
rthumb 31.7778 -50.1686
lclavicle 4.81059e-014 1.14699e-013
lhumerus -21.0733 -20.2134 97.2177
lradius 38.595
lwrist -2.03996
lhand -24.9795 -17.6
lfingers 7.12502
lthumb 1.53133 12.3743
rfemur -53.0423 34.8556 -15.7576
rtibia 1.98919
rfoot -6.7974 -29.7626
rtoes 7.0368
lfemur 54.196 121.921 34.9833
ltibia -1.02331
lfoot 213.914 110.226
ltoes 25.5836
1746
root 0.569957 17.4855 7.8709 39.4309 -25.3205 -7.18837
lowerback 13.6965 -1.70284 6.05047
upperback 0.950915 -1.10808 3.52414
thorax -6.73353 -0.679852 0.542391
lowerneck -3.25182 -5.38821 -4.6337
upperneck 31.6557 -7.95536 1.86578
head 11.0037 -4.03805 0.654932
rclavicle -3.04141e-014 5.30755e-014
rhumerus -34.308 -2.43962 -83.6272
rradius 50.0739
rwrist 13.0779
rhand 6.45867 -23.0691
rfingers 7.12502
rthumb 31.7603 -50.3229
lclavicle -3.04141e-014 5.30755e-014
lhumerus -21.0232 -20.2358 97.1871
lradius 38.822
lwrist -1.9933
lhand -25.0523 -17.6166
lfingers 7.12502
lthumb 1.46104 12.3581
rfemur -53.3237 34.6922 -15.994
rtibia 1.71277
rfoot -7.21926 -29.8903
rtoes 9.93232
lfemur 55.3559 122.636 35.9948
ltibia -1.2607
lfoot 209.109 109.175
ltoes 22.0115
1747
root 0.523517 17.4755 7.87382 39.9367 -25.3317 -7.07236
lowerback 13.8977 -1.72623 6.18401
upperback 0.767028 -1.09198 3.44389
thorax -7.04752 -0.684285 0.390539
lowerneck -3.47762 -5.34593 -5.064
upperneck 31.2581 -7.94994 2.40915
head 10.9387 -4.02135 0.920788
rclavicle -3.69739e-014 -5.4467e-014
rhumerus -34.3855 -2.24372 -83.7685
rradius 50.3181
rwrist 12.6783
rhand 6.42483 -23.1849
rfingers 7.12502
rthumb 31.728 -50.445
lclavicle -3.69739e-014 -5.4467e-014
lhumerus -21.0427 -20.064 97.1718
lradius 39.0803
lwrist -1.77993
lhand -25.1371 -17.5739
lfingers 7.12502
lthumb 1.37913 12.4014
rfemur -53.7904 34.5193 -16.3879
rtibia 1.51502
rfoot -7.52013 -30.0407
rtoes 11.6304
lfemur 56.3343 123.408 36.7865
ltibia -1.48328
lfoot 203.869 108.287
ltoes 18.3532
1748
root 0.476255 17.4665 7.87549 40.4379 -25.3238 -6.91311
lowerback 14.1019 -1.735 6.28941
upperback 0.569501 -1.05926 3.36567
thorax -7.37744 -0.680918 0.253403
lowerneck -3.40002 -5.37887 -4.97019
upperneck 30.3836 -7.91815 2.30546
head 10.5757 -4.00629 0.882966
rclavicle 1.25234e-014 1.98785e-015
rhumerus -34.549 -2.11983 -83.876
rradius 50.6134
rwrist 12.4061
rhand 6.45917 -23.23
rfingers 7.12502
rthumb 31.7607 -50.4836
lclavicle 1.25234e-014 1.98785e-015
lhumerus -21.0772 -19.9772 97.1964
lradius 39.3576
lwrist -1.48265
lhand -25.2246 -17.5116
lfingers 7.12502
lthumb 1.29469 12.4642
rfemur -54.271 34.2957 -16.7952
rtibia 1.3539
rfoot -7.89078 -30.1968
rtoes 12.6186
lfemur 57.3231 124.208 37.6017
ltibia -1.65794
lfoot 198.699 107.602
ltoes 14.9585
1749
root 0.427763 17.4592 7.87596 40.9535 -25.3038 -6.7668
lowerback 14.31 -1.73184 6.40072
upperback 0.36871 -1.0097 3.27823
thorax -7.71333 -0.670713 0.099333
lowerneck -3.37818 -5.42772 -4.82748
upperneck 29.5803 -7.92671 2.22528
head 10.2573 -4.00127 0.839337
rclavicle 9.20373e-014 4.25399e-014
rhumerus -34.7675 -2.12464 -83.9912
rradius 50.8943
rwrist 12.1873
rhand 6.39667 -23.2277
rfingers 7.12502
rthumb 31.7012 -50.4931
lclavicle 9.20373e-014 4.25399e-014
lhumerus -21.0974 -19.8855 97.2146
lradius 39.5986
lwrist -1.20607
lhand -25.3513 -17.5024
lfingers 7.12502
lthumb 1.17225 12.4741
rfemur -54.7879 34.0659 -17.1848
rtibia 1.24481
rfoot -8.1947 -30.3679
rtoes 13.4259
lfemur 58.2587 125.047 38.4158
ltibia -1.80419
lfoot 194.009 107.134
ltoes 11.9547
1750
root 0.383444 17.4494 7.87768 41.6275 -25.4297 -6.76046
lowerback 14.4483 -1.74223 6.46452
upperback 0.167764 -0.989867 3.22573
thorax -8.01089 -0.672564 0.0131297
lowerneck -3.34087 -5.35364 -4.7813
upperneck 28.68 -7.76884 2.20965
head 9.90572 -3.92626 0.853227
rclavicle 1.39149e-014 -6.10269e-014
rhumerus -34.8904 -1.83626 -84.1427
rradius 51.1176
rwrist 11.8827
rhand 6.33095 -23.2074
rfingers 7.12502
rthumb 31.6386 -50.4851
lclavicle 1.39149e-014 -6.10269e-014
lhumerus -21.0108 -19.5096 97.1322
lradius 39.7519
lwrist -0.831288
lhand -25.4926 -17.5617
lfingers 7.12502
lthumb 1.03582 12.4156
rfemur -55.6417 33.8521 -17.7509
rtibia 1.22533
rfoot -8.20727 -30.5479
rtoes 13.2882
lfemur 58.9851 126.066 39.0287
ltibia -1.99468
lfoot 189.468 106.792
ltoes 8.76568
1751
root 0.343491 17.4338 7.87536 42.6103 -25.6352 -6.94298
lowerback 14.3604 -1.67176 6.66153
upperback -0.0695533 -0.862058 3.15191
thorax -8.21799 -0.627907 -0.199296
lowerneck -3.30937 -5.27054 -4.85405
upperneck 27.7897 -7.63603 2.38896
head 9.57954 -3.85469 0.950815
rclavicle -6.06293e-014 -4.41302e-014
rhumerus -34.9384 -1.57651 -84.275
rradius 51.3079
rwrist 11.5129
rhand 6.36167 -23.2976
rfingers 7.12502
rthumb 31.6679 -50.5696
lclavicle -6.06293e-014 -4.41302e-014
lhumerus -20.8285 -19.2228 97.0003
lradius 39.7668
lwrist -0.494285
lhand -25.6443 -17.6017
lfingers 7.12502
lthumb 0.889284 12.3762
rfemur -56.9162 33.5574 -18.4714
rtibia 1.24961
rfoot -8.28166 -30.7107
rtoes 13.4176
lfemur 59.6865 127.488 39.7123
ltibia -2.19405
lfoot 184.805 106.572
ltoes 5.47292
1752
root 0.289589 17.4332 7.8861 42.6249 -25.5922 -6.73185
lowerback 15.0415 -1.78062 6.72683
upperback -0.118146 -0.931603 3.07078
thorax -8.66358 -0.674873 -0.28779
lowerneck -3.4069 -5.21239 -4.96997
upperneck 27.0811 -7.53867 2.57447
head 9.35106 -3.80056 1.04693
rclavicle -2.04748e-014 -1.59028e-014
rhumerus -34.9074 -1.37425 -84.3654
rradius 51.3998
rwrist 11.1993
rhand 6.40569 -23.4113
rfingers 7.12502
rthumb 31.7098 -50.675
lclavicle -2.04748e-014 -1.59028e-014
lhumerus -20.6555 -18.8064 96.9191
lradius 39.6945
lwrist -0.453261
lhand -25.6948 -17.6623
lfingers 7.12502
lthumb 0.840527 12.3158
rfemur -56.7934 33.729 -18.5094
rtibia 1.06232
rfoot -8.38232 -30.9258
rtoes 13.5627
lfemur 58.2747 128.597 37.8382
ltibia -2.07619
lfoot 180.56 104.996
ltoes 2.27557
